<svg width="600" height="260" viewBox="0 0 600 260" fill="none" xmlns="http://www.w3.org/2000/svg">
  <style>
    .card { fill: #141321; stroke: #fe428e; stroke-width: 1; stroke-opacity: 0.4; rx: 10px; }
    .title { font-family: 'Segoe UI', Ubuntu, Sans-Serif; font-size: 16px; font-weight: 700; fill: #fe428e; }
    .category-title { font-family: 'Segoe UI', Ubuntu, Sans-Serif; font-size: 13px; font-weight: 700; fill: #a9fef7; }
    .desc { font-family: 'Segoe UI', Ubuntu, Sans-Serif; font-size: 11px; fill: #a0a0a0; }
    .lang-item { font-family: 'Segoe UI', Ubuntu, Sans-Serif; font-size: 12px; fill: #e1e1e6; }
    .pct { font-weight: 600; fill: #ffffff; }
  </style>

  <rect class="card" x="1" y="1" width="598" height="258" />

  <g transform="translate(25, 48)">
    <clipPath id="bar-clip">
      <rect x="0" y="0" width="550" height="10" rx="5" />
    </clipPath>
    <rect x="0" y="0" width="550" height="10" fill="#2d2b55" rx="5" />
    <!-- JavaScript / Node.js 46.58% -->
    <g clip-path="url(#bar-clip)">
      <rect x="0" y="0" width="256" height="10" fill="#f7df1e" />
      <rect x="256" y="0" width="234" height="10" fill="#b026ff" />
      <rect x="490" y="0" width="48" height="10" fill="#e34f26" />
      <rect x="538" y="0" width="10" height="10" fill="#1572b6" />
      <rect x="548" y="0" width="2" height="10" fill="#00add8" />
    </g>
  </g>

  <!-- Frontend -->
  <g transform="translate(25, 82)">
    <text x="0" y="0" class="category-title">🎨 Frontend (53.12%)</text>
    <text x="0" y="15" class="desc">UI, templates, markup &amp; styling</text>

    <circle cx="6" cy="30" r="4" fill="#b026ff" />
    <text x="16" y="34" class="lang-item">EJS <tspan class="pct">42.51%</tspan></text>

    <circle cx="160" cy="30" r="4" fill="#e34f26" />
    <text x="170" y="34" class="lang-item">HTML <tspan class="pct">8.78%</tspan></text>

    <circle cx="280" cy="30" r="4" fill="#1572b6" />
    <text x="290" y="34" class="lang-item">CSS &amp; Less <tspan class="pct">1.81%</tspan></text>
  </g>

  <!-- Backend -->
  <g transform="translate(25, 150)">
    <text x="0" y="0" class="category-title">⚙️ Backend &amp; Systems (46.80%)</text>
    <text x="0" y="15" class="desc">Node.js services, APIs, application logic &amp; data processing</text>

    <circle cx="6" cy="30" r="4" fill="#f7df1e" />
    <text x="16" y="34" class="lang-item">Node.js <tspan class="pct">46.58%</tspan></text>

    <circle cx="135" cy="30" r="4" fill="#b07219" />
    <text x="145" y="34" class="lang-item">Java <tspan class="pct">0.04%</tspan></text>

    <circle cx="235" cy="30" r="4" fill="#00add8" />
    <text x="245" y="34" class="lang-item">Go <tspan class="pct">0.10%</tspan></text>

    <circle cx="315" cy="30" r="4" fill="#3572A5" />
    <text x="325" y="34" class="lang-item">Python <tspan class="pct">0.08%</tspan></text>
  </g>

  <!-- DevOps and other languages -->
  <g transform="translate(25, 212)">
    <text x="0" y="0" class="category-title">🚀 DevOps &amp; Other (0.17%)</text>
    <text x="0" y="15" class="desc">Build tools, automation &amp; infrastructure</text>

    <circle cx="6" cy="30" r="4" fill="#89e051" />
    <text x="16" y="34" class="lang-item">Shell / Make <tspan class="pct">0.07%</tspan></text>

    <circle cx="140" cy="30" r="4" fill="#F05138" />
    <text x="150" y="34" class="lang-item">Swift <tspan class="pct">0.04%</tspan></text>

    <circle cx="240" cy="30" r="4" fill="#384d54" />
    <text x="250" y="34" class="lang-item">Dockerfile &amp; Other <tspan class="pct">0.06%</tspan></text>
  </g>
</svg>
